<svg xmlns="http://www.w3.org/2000/svg"  width="2.1em" height="2.1em" fill="currentColor" viewBox="0 0 512 512"><path d="m167.5 11.4-157 11.1-.3 3.5c-.3 3.7 29.4 427 30 427.4.2.2 6.7-.1 14.5-.7l14.3-1V80h352l.2 199.2.3 199.2 16.9 1.8c9.3 1 17.1 1.6 17.4 1.3.7-.7 46.7-428.3 46.1-428.8-.2-.2-37.1-4.3-81.9-9.1-44.8-4.8-82.7-8.9-84.1-9.2-2.5-.5-2.7-.8-3.3-9-.3-4.6-.9-12.2-1.2-16.9l-.7-8.5-3.1.1c-1.7.1-73.7 5.1-160.1 11.3z"/><path d="M99 311v201h292V110H99v201zm113-130.4c7.9 2.3 14.6 6 20.1 11.1 2.7 2.5 4.9 4.9 4.9 5.3 0 .4-4.4 4.6-9.7 9.3l-9.7 8.5-4.4-3.9c-4.5-3.9-12-6.9-17.3-6.9-4.1 0-11.1 2.8-14.3 5.8-7.1 6.7-8.9 20.2-4 30.1 3.6 7.1 8.6 10.4 16.9 10.9 7.9.5 12.2-.9 17.8-5.8 2.5-2.2 4.8-4 5.2-4 .9 0 18.9 16 19.4 17.2.6 1.8-8.8 9.6-15.7 13.1-15.6 7.8-36.8 7.5-52.9-.7-6.4-3.2-15.6-11.6-19-17.3-6.7-11.5-8.5-28.3-4.4-41.5 2.3-7.3 8.9-16.9 14.9-21.6 13.7-10.8 34.3-14.6 52.2-9.6zm58.7.6c.5.7 5.6 12.8 11.3 26.8 5.7 14 10.6 25.8 11 26.2.3.5 5-9.9 10.5-23 5.4-13 10.7-25.4 11.7-27.5l1.8-3.7h15c10.1 0 15 .4 15 1.1 0 .6-8.8 22-19.6 47.5L307.7 275H276.4l-19.3-45.8c-10.7-25.1-19.6-46.5-19.9-47.5-.4-1.6.8-1.7 16.1-1.7 12 0 16.7.3 17.4 1.2zM343 327v15H147v-30h196v15zm0 53v15H147v-30h196v15zm-.2 53.7-.3 14.8-97.7.3-97.8.2v-30h196.1l-.3 14.7z"/></svg>