<svg xmlns="http://www.w3.org/2000/svg" width="2.1em" height="2.1em" fill="currentColor" viewBox="0 0 512 512"><path d="M127.3 1.5c-9.4 2.9-17.1 9.2-21.2 17.4-4 7.7-4.2 13.4-3.9 102l.3 85.4 8 1.8c66.3 14.3 107.6 81.3 90.3 146.4-3.5 13.1-10.2 27.6-18.1 38.7-1 1.5.6 9 9.2 43.3l10.3 41.5h139.2c150.8 0 145.6.2 154.4-5.3 5.1-3.3 10.9-9.9 13.5-15.5l2.2-4.7.3-140.8.2-140.7h-69.3c-76.9 0-76.5 0-86.4-6.5-3.1-2.1-6.7-5.7-8.8-8.8-6.5-9.9-6.5-9.5-6.5-86.4V0L236.3.1c-83.7 0-105.6.3-109 1.4zm167 101.6c17.2 4.7 16.6 28.9-.9 32.9-5.1 1.2-103.7 1.2-108.8 0-13.7-3.1-18.4-19.4-8.3-28.8 5.3-5 6.5-5.1 62.2-5.2 33.3 0 53.4.4 55.8 1.1zm138.4 103c4.5 1.7 9 6.7 10.3 11.5 2.2 7.9-1.7 16-9.4 19.5-3.9 1.8-9.1 1.9-109.5 1.9-105.1 0-105.5 0-109.8-2.1-9.2-4.4-12.2-17.1-6-25.2 5.4-7.1-2.6-6.7 115.4-6.7 72.5 0 107.1.3 109 1.1zm.9 102.8c12.7 5.8 13.5 23.2 1.3 30.1-3.7 2-4.3 2-94.6 1.8l-90.8-.3-3.3-2.3c-6.3-4.5-8.8-13.4-5.8-20.5 1.7-4.1 6.5-8.5 10.2-9.7 1.6-.4 42.5-.9 90.9-.9 83.6-.1 88.2 0 92.1 1.8z"/><path d="m375.2 68.7.3 67.8 67.8.3c37.2.1 67.7-.1 67.7-.5C511 135.3 376.7 1 375.7 1c-.4 0-.6 30.5-.5 67.7zM71.2 240.1c-17.5 2.9-32 10.7-45.7 24.4C7.1 282.9-1.2 304.1.3 329c1.2 19.3 7.5 34.9 20.4 50.6 2.9 3.5 5.3 6.9 5.3 7.6 0 .7-5.9 25.1-13.1 54.3C2.3 484.1-.2 495.2.4 498.3c.8 4.5 5.8 10.5 10.3 12.3 6.7 2.8 8.7 2.1 42.5-14.7l32.3-16.1 32.5 16.1c21.1 10.5 33.5 16.2 35.5 16.1 4.2-.1 10.8-3.3 13.3-6.5 1.2-1.5 2.7-4.6 3.3-6.8 1-3.6-.1-8.6-12.5-58.4L144 385.8l5.4-5.9c9-9.7 15.6-22.6 19.3-37.5 2.4-10 2.1-28.5-.6-38.9-11.4-43.1-53.4-70.6-96.9-63.4zm25.7 34.4c33.5 7.9 49.3 44.6 32.5 75.5-1.5 2.8-5.5 7.6-8.8 10.9-10.2 9.7-21.2 14.1-35.4 14.1-9.4 0-20-3-27.5-7.7-16.5-10.4-26.2-32.1-22.8-51.1C37.8 300 48.1 286 62.4 279c12.2-6.1 22.3-7.3 34.5-4.5z"/></svg>